<?xml version="1.0" encoding="UTF-8" standalone="no"?>
<svg
   xmlns:dc="http://purl.org/dc/elements/1.1/"
   xmlns:cc="http://creativecommons.org/ns#"
   xmlns:rdf="http://www.w3.org/1999/02/22-rdf-syntax-ns#"
   xmlns:svg="http://www.w3.org/2000/svg"
   xmlns="http://www.w3.org/2000/svg"
   xmlns:sodipodi="http://sodipodi.sourceforge.net/DTD/sodipodi-0.dtd"
   xmlns:inkscape="http://www.inkscape.org/namespaces/inkscape"
   data-fa-i2svg=""
   viewBox="0 0 33.75 512"
   height="27"
   version="1.1"
   id="svg4"
   sodipodi:docname="icon-pedigree.svg"
   width="33.75"
   inkscape:version="0.92.4 (5da689c313, 2019-01-14)">
  <metadata
     id="metadata10">
    <rdf:RDF>
      <cc:Work
         rdf:about="">
        <dc:format>image/svg+xml</dc:format>
        <dc:type
           rdf:resource="http://purl.org/dc/dcmitype/StillImage" />
      </cc:Work>
    </rdf:RDF>
  </metadata>
  <defs
     id="defs8" />
  <sodipodi:namedview
     pagecolor="#ffffff"
     bordercolor="#666666"
     borderopacity="1"
     objecttolerance="10"
     gridtolerance="10"
     guidetolerance="10"
     inkscape:pageopacity="0"
     inkscape:pageshadow="2"
     inkscape:window-width="1920"
     inkscape:window-height="1017"
     id="namedview6"
     showgrid="false"
     inkscape:zoom="8.925"
     inkscape:cx="10.661658"
     inkscape:cy="-7.5902336"
     inkscape:window-x="-8"
     inkscape:window-y="-8"
     inkscape:window-maximized="1"
     inkscape:current-layer="svg4" />
  <path
     d="m -175.125,352 h -96 c -17.67,0 -32,14.33 -32,32 v 96 c 0,17.67 14.33,32 32,32 h 96 c 17.67,0 32,-14.33 32,-32 v -96 c 0,-17.67 -14.33,-32 -32,-32 z m -24,-80 h 192 v 48 h 48 v -48 h 192 v 48 h 48 v -57.59 c 0,-21.17 -17.23,-38.41 -38.41,-38.41 H 40.875 v -64 h 40 c 17.67,0 32,-14.33 32,-32 V 32 c 0,-17.67 -14.33,-32 -32,-32 h -128 c -17.67,0 -32,14.33 -32,32 v 96 c 0,17.67 14.33,32 32,32 h 40 v 64 h -201.59 c -21.18,0 -38.41,17.23 -38.41,38.41 V 320 h 48 z m 264,80 h -96 c -17.67,0 -32,14.33 -32,32 v 96 c 0,17.67 14.33,32 32,32 h 96 c 17.67,0 32,-14.33 32,-32 v -96 c 0,-17.67 -14.33,-32 -32,-32 z m 240,0 h -96 c -17.67,0 -32,14.33 -32,32 v 96 c 0,17.67 14.33,32 32,32 h 96 c 17.67,0 32,-14.33 32,-32 v -96 c 0,-17.67 -14.33,-32 -32,-32 z"
     id="path2"
     inkscape:connector-curvature="0"
     style="fill:#5e72e4;fill-opacity:1" />
</svg>
