<svg xmlns="http://www.w3.org/2000/svg" version="1.0" viewBox="0 0 800 1000"><path fill="#fff" fill-rule="evenodd" stroke-width="2.3" d="M358 29c16 4 32-15 50-16 25 0 56 14 102-7 10-5 29-11 41 1 8 9 17 13 26 10 22-10 44 20 57 24 7 2 14 9 21 14 10 7 21 23 30 32l26 21c13 14-1 18-11 35-10 10-20 23-32 46l15 100 23 76-16 26 80 113c2 16-1 28-13 35l-51 14c-5 39 4 50 13 64l-20 14 20 26-23 15 16 55c3 20-8 32-15 42-17 21-24 20-49 21-52 3-84-6-139-26-18 27-41 42-41 105-44 46-35 70-41 128-24 4-22 24-182-138-79-80-171-130-214-88 28-80 74-111 77-198l-21-33s-19-31-20-37l-16-51-22-169c5-106 75-164 125-202 38-32 86-45 137-54 22-4 44 2 67 2z"/></svg>