<svg xmlns="http://www.w3.org/2000/svg" viewBox="0 0 800 1000"><path fill="#fff" d="M444 31c-93-3-152 26-211 93-69-24-158 8-197 71-59 96-49 261 55 324-5 30-1 69 34 78 1 8 3 15 6 22 24 52 105 42 119 1 14 11 29 14 46 12l-1 1c-8 24-30 19-45 5 15 28 35 30 64 21-3 41-26 120-52 154-6 7-13 11-20 17-13 13-20 30-29 46 126-51 179 50 284 81 23 6 45 8 68 12-4-9-12-18-17-27-27-41-47-81-30-130 5-16 15-30 21-46 7-19 11-39 19-57 19-39 52-23 86-17 21 4 69 14 86 0 21-17 4-47 9-65 6-20 33-21 12-45 37-16 1-23 7-45 5-19 37-16 42-38 3-14-12-22-20-31-21-20-51-64-36-93 16-32 15-27 8-66-8-38-14-70-36-103 24-16 3-56-11-71-27-28-50-25-77-44-59-41-112-58-184-60zM199 146l17 3c-83 3-147 61-159 145l-2 16c-3-86 51-171 144-164zm-82 109c-13 38-6 80 25 108 3 2 9 5 10 7h-1a79 79 0 0 1-39-108l5-7zM88 418c18 13 41 20 63 17l-5 2c-17 6-51-1-58-19z"/></svg>